<?xml version="1.0" encoding="UTF-8" standalone="no"?>
<!DOCTYPE svg PUBLIC "-//W3C//DTD SVG 1.1//EN" "http://www.w3.org/Graphics/SVG/1.1/DTD/svg11.dtd">
<svg width="100%" height="100%" viewBox="0 0 13346 3627" version="1.1" xmlns="http://www.w3.org/2000/svg" xmlns:xlink="http://www.w3.org/1999/xlink" xml:space="preserve" xmlns:serif="http://www.serif.com/" style="fill-rule:evenodd;clip-rule:evenodd;stroke-linejoin:round;stroke-miterlimit:2;">
    <g transform="matrix(1,0,0,1,0,-41.1286)">
        <g id="Logo-Weborigin-Main-1" serif:id="Logo Weborigin Main 1" transform="matrix(7.80468,0,0,2.81163,0,41.1286)">
            <rect x="0" y="0" width="1710" height="1290" style="fill:none;"/>
            <g transform="matrix(0.561165,0,0,1.58091,-202.621,-1044.99)">
                <path d="M1822.96,910.5C1822.96,823.021 1750.88,752 1662.1,752L574.86,752C486.079,752 414,823.021 414,910.5L414,1227.5C414,1314.98 486.079,1386 574.86,1386L1662.1,1386C1750.88,1386 1822.96,1314.98 1822.96,1227.5L1822.96,910.5Z" style="fill:rgb(36,102,217);"/>
            </g>
            <g transform="matrix(0.533868,0,0,1.48194,-121.465,-1231.04)">
                <text x="380px" y="1486px" style="font-family:'OpenSans-Bold', 'Open Sans', sans-serif;font-weight:700;font-size:600px;fill:white;">Web</text>
            </g>
            <g transform="matrix(0.533868,0,0,1.48194,659.131,-1223.73)">
                <text x="380px" y="1486px" style="font-family:'OpenSans-Light', 'Open Sans', sans-serif;font-weight:300;font-size:600px;">origin</text>
            </g>
        </g>
    </g>
</svg>
